<?xml version="1.0" encoding="UTF-8"?><svg id="_レイヤー_2" xmlns="http://www.w3.org/2000/svg" viewBox="0 0 2041.91 2142.45"><defs><style>.cls-1{fill:#0ea47a;}</style></defs><g id="_レイヤー_1-2"><g id="SvgjsG3231"><path class="cls-1" d="m1938.73,867.01c26.49-79.42,10.69-174.22-39.55-240.52-31.82-42.04-91.78-91.04-195.52-85.99-84.33,5.78-199.3,97.87-308.37,205.31-95.95,94.91-186.63,201.95-247.12,273.02-17.38,20.76-33.71,39.84-47.99,56.48,9.34,10.41,19.81,22.18,30.5,35.07,61.7,70.9,155.2,178.19,253.92,273.72,111.86,107.41,230.78,199.49,318.5,205.87,102.7,5.39,162.79-43.48,194.78-85.71,50.36-66.5,66.5-160.5,40.26-240.37-26.94-81.9-175.96-198.76-175.96-198.76,0,0,149.36-115.93,176.56-198.11Zm-488.48-723.07c-66.53-50.44-160.5-66.16-240.35-40.23-81.9,27.2-198.73,176.27-198.73,176.27,0,0-115.98-149.39-198.14-176.87-79.45-26.21-174.13-10.75-240.54,39.44-41.95,31.88-91.02,91.83-85.94,195.6,6.77,98.86,132.54,240.63,263.11,364.65,78.26,74.4,158.33,142.14,215.18,190.8,20.74,17.38,39.78,33.74,56.43,47.96,10.38-9.39,22.26-19.38,35.07-30.47,66.75-57.55,164.37-142.73,254.37-234.17,115.73-117.42,218.59-244.95,225.34-337.94,5.3-103.01-43.5-163.1-85.8-195.06Zm-614.82,1894.73c81.93-26.94,198.73-175.96,198.73-175.96,0,0,115.98,149.39,198.17,176.59,79.39,26.49,173.85,11,240.46-39.53,42.04-31.82,91.04-91.83,86.02-195.6-6.46-91.52-114.83-220.12-234.73-337.23-86.98-84.75-180.17-163.61-243.93-217.89-20.76-17.63-39.44-34.11-56.12-48.27-10.72,9.34-22.54,19.72-35.07,30.44-66.36,57.92-164.31,142.76-254.31,234.2-115.7,117.39-218.59,245.26-225.28,338.22-5.39,102.7,43.42,162.82,85.71,194.81,66.16,50.7,160.53,66.53,240.35,40.23Zm75.72-1002.86c-61.93-71.27-155.06-178.62-253.83-273.78-111.92-107.41-230.42-199.47-318.16-205.9-103.03-5.3-163.16,43.48-195.15,85.8-50.39,66.5-66.53,160.5-40.23,240.35,26.89,81.93,176.27,198.76,176.27,198.76,0,0-149.73,115.96-176.92,198.14-26.46,79.42-10.66,173.76,39.55,240.49,31.82,42.01,91.81,91.04,195.52,85.94,84.72-5.73,201.07-99.23,310.82-207.65,94.91-94.26,184.88-200.28,244.66-270.62,17.41-20.74,33.71-39.84,47.99-56.45-9.34-10.78-19.75-22.54-30.53-35.07Zm1113.12,199.78c35.21,106.87,13.8,234.17-54.34,323.63-63.96,83.85-160.81,127.04-272.45,120.98-31.97-2.12-65.23-11.57-99.59-26.52,29.76,50.7,48.1,99.65,51.12,145.16,5.73,112.74-37.38,209.45-121.85,273.16-89.21,68.25-216.56,88.84-323.77,53.32-72.17-24.09-131.33-68.9-169.45-124.45-38.57,55.44-98.01,100.13-170.21,123.94-106.84,35.21-234.17,13.91-323.91-54.25-83.85-63.93-126.76-160.76-121.06-272.57,3.22-44.32,19.97-91.49,47.09-140.75-42.32,22.54-83.65,36.31-122.19,39.05-112.77,5.39-209.14-37.81-273.21-121.82-68.19-89.66-88.84-216.99-53.27-324.11,24.38-72.14,68.84-131.39,124.79-169.45-55.81-38.62-100.49-98.01-124.31-170.24-35.21-106.9-13.85-234.17,54.31-323.57,64.24-83.91,160.79-127.1,272.45-121.03,34.36,2.54,70.11,12.61,107.18,29.6-32.19-53.07-52.22-104.11-55.61-152.04-5.36-112.71,37.81-209.06,121.82-273.19C607.44,2.23,734.43-18.37,841.61,17.12c72.42,24.38,131.7,69.29,169.76,124.84,38.26-55.49,98.01-100.47,170.27-124.28,106.87-35.27,234.17-13.94,323.6,54.23,83.88,64.35,127.07,160.81,121.01,272.57-2.85,45.39-20.31,93.27-48.41,143.55,42.01-22.15,82.61-35.29,120.44-37.95,112.77-5.42,209.45,37.69,273.24,121.8,68.13,89.55,88.79,216.56,53.27,324.11-24.4,72.14-68.87,131.33-124.84,169.45,55.75,38.14,100.41,97.96,124.33,170.15Z"/></g></g></svg>