
        <svg xmlns="http://www.w3.org/2000/svg" xmlns:xlink="http://www.w3.org/1999/xlink" version="1.1" width="2994.7964124164" 
        height="3272.254219310582" viewBox="0 0 2994.7964124164 3272.254219310582">
			
			<g transform="scale(13.612710965529091) translate(10, 10)">
				<defs id="SvgjsDefs3230"></defs><g id="SvgjsG3231" featureKey="odWo6G-0" transform="matrix(2.07254716223336,0,0,2.07254716223336,-3.57935598270263,-26.818874048654177)" fill="#0ea47a"><g xmlns="http://www.w3.org/2000/svg"><g><g><g><g><g><g><path d="M82.507,43.671c0.939-2.815,0.379-6.175-1.402-8.525c-1.128-1.49-3.253-3.227-6.93-3.048         c-2.989,0.205-7.064,3.469-10.93,7.277c-3.401,3.364-6.615,7.158-8.759,9.677c-0.616,0.736-1.195,1.412-1.701,2.002         c0.331,0.369,0.702,0.786,1.081,1.243c2.187,2.513,5.501,6.316,9,9.702c3.965,3.807,8.18,7.071,11.289,7.297         c3.64,0.191,5.77-1.541,6.904-3.038c1.785-2.357,2.357-5.689,1.427-8.52c-0.955-2.903-6.237-7.045-6.237-7.045         S81.543,46.584,82.507,43.671z M65.193,18.042c-2.358-1.788-5.689-2.345-8.519-1.426c-2.903,0.964-7.044,6.248-7.044,6.248         s-4.111-5.295-7.023-6.269c-2.816-0.929-6.172-0.381-8.526,1.398c-1.487,1.13-3.226,3.255-3.046,6.933         c0.24,3.504,4.698,8.529,9.326,12.925c2.774,2.637,5.612,5.038,7.627,6.763c0.735,0.616,1.41,1.196,2,1.7         c0.368-0.333,0.789-0.687,1.243-1.08c2.366-2.04,5.826-5.059,9.016-8.3c4.102-4.162,7.748-8.682,7.987-11.978         C68.422,21.305,66.692,19.175,65.193,18.042z M43.401,85.2c2.904-0.955,7.044-6.237,7.044-6.237s4.111,5.295,7.024,6.259         c2.814,0.939,6.162,0.39,8.523-1.401c1.49-1.128,3.227-3.255,3.049-6.933c-0.229-3.244-4.07-7.802-8.32-11.953         c-3.083-3.004-6.386-5.799-8.646-7.723c-0.736-0.625-1.398-1.209-1.989-1.711c-0.38,0.331-0.799,0.699-1.243,1.079         c-2.352,2.053-5.824,5.06-9.014,8.301c-4.101,4.161-7.748,8.693-7.985,11.988c-0.191,3.64,1.539,5.771,3.038,6.905         C37.227,85.571,40.572,86.132,43.401,85.2z M46.085,49.654c-2.195-2.526-5.496-6.331-8.997-9.704         c-3.967-3.807-8.167-7.07-11.277-7.298c-3.652-0.188-5.783,1.541-6.917,3.041c-1.786,2.357-2.358,5.689-1.426,8.519         c0.953,2.904,6.248,7.045,6.248,7.045s-5.307,4.11-6.271,7.023c-0.938,2.815-0.378,6.159,1.402,8.524         c1.128,1.489,3.254,3.227,6.93,3.046c3.003-0.203,7.127-3.517,11.017-7.36c3.364-3.341,6.553-7.099,8.672-9.592         c0.617-0.735,1.195-1.412,1.701-2.001C46.836,50.515,46.467,50.098,46.085,49.654z M85.539,56.735         c1.248,3.788,0.489,8.3-1.926,11.471c-2.267,2.972-5.7,4.503-9.657,4.288c-1.133-0.075-2.312-0.41-3.53-0.94         c1.055,1.797,1.705,3.532,1.812,5.145c0.203,3.996-1.325,7.424-4.319,9.682c-3.162,2.419-7.676,3.149-11.476,1.89         c-2.558-0.854-4.655-2.442-6.006-4.411c-1.367,1.965-3.474,3.549-6.033,4.393c-3.787,1.248-8.3,0.493-11.481-1.923         c-2.972-2.266-4.493-5.698-4.291-9.661c0.114-1.571,0.708-3.243,1.669-4.989c-1.5,0.799-2.965,1.287-4.331,1.384         c-3.997,0.191-7.413-1.34-9.684-4.318c-2.417-3.178-3.149-7.691-1.888-11.488c0.864-2.557,2.44-4.657,4.423-6.006         c-1.978-1.369-3.562-3.474-4.406-6.034c-1.248-3.789-0.491-8.3,1.925-11.469c2.277-2.974,5.699-4.505,9.657-4.29         c1.218,0.09,2.485,0.447,3.799,1.049c-1.141-1.881-1.851-3.69-1.971-5.389c-0.19-3.995,1.34-7.41,4.318-9.683         c3.177-2.417,7.678-3.147,11.477-1.889c2.567,0.864,4.668,2.456,6.017,4.425c1.356-1.967,3.474-3.561,6.035-4.405         c3.788-1.25,8.3-0.494,11.47,1.922c2.973,2.281,4.504,5.7,4.289,9.661c-0.101,1.609-0.72,3.306-1.716,5.088         c1.489-0.785,2.928-1.251,4.269-1.345c3.997-0.192,7.424,1.336,9.685,4.317c2.415,3.174,3.147,7.676,1.888,11.488         c-0.865,2.557-2.441,4.655-4.425,6.006C83.108,52.056,84.691,54.176,85.539,56.735z"></path></g></g></g></g></g></g></g></g><g id="SvgjsG3232" featureKey="VGK2BT-0" transform="matrix(2.3403407378415557,0,0,2.3403407378415557,-1.5866803732024988,173.29715712620828)" fill="#ffffff"><path d="M6.3729 16.339 c0 0.15254 -0.11864 0.27119 -0.27119 0.27119 l-5.1356 0 c-0.15254 0 -0.28814 -0.10169 -0.28814 -0.27119 l0 -1.1186 c0 -0.16949 0.11864 -0.27119 0.28814 -0.27119 l5.1356 0 c0.15254 0 0.27119 0.084746 0.27119 0.27119 l0 1.1186 z M18.18626440677966 6.441000000000001 c2.9492 0 4.6442 2.4915 4.6442 4.5424 c0 2.1695 -1.6949 4.5763 -4.6441 4.5763 l-3.3729 0 l0 4.1525 c0 0.18644 -0.10153 0.28797 -0.27119 0.28797 l-1.3729 0 c-0.16949 0 -0.27119 -0.10153 -0.27119 -0.28797 l0 -13 c0 -0.15254 0.10169 -0.27119 0.27119 -0.27119 l5.0168 0 z M18.03406440677966 13.712 c1.8644 0 2.8983 -1.3729 2.8983 -2.7288 c0 -1.339 -1.0339 -2.6949 -2.8983 -2.6949 l-3.2203 0 l0 5.4237 l3.2203 0 z M36.15289830508475 19.69492 c0.08458 0.16966 0.033898 0.30508 -0.15254 0.30508 l-1.5424 0 c-0.15254 0 -0.23712 -0.067631 -0.28797 -0.18644 l-1.0508 -2.2034 l-7.3051 0 l-1.0339 2.2034 c-0.067797 0.11881 -0.15254 0.18644 -0.28814 0.18644 l-1.5593 0 c-0.16949 0 -0.25424 -0.13543 -0.18644 -0.30508 l6.3898 -13.186 c0.050847 -0.11864 0.13559 -0.15254 0.22034 -0.15254 l0.22017 0 c0.084746 0 0.15254 0.033898 0.22034 0.15254 z M26.644198305084743 15.8646 l5.6441 0 l-2.8136 -6 z M46.15194915254237 6.441000000000001 c0.15254 0 0.27102 0.10169 0.27102 0.27119 l0 1.3051 c0 0.15254 -0.11864 0.27119 -0.27119 0.27119 l-4.0846 0 l0 11.424 c0 0.18644 -0.10169 0.28797 -0.27119 0.28797 l-0.98305 0 c-0.44068 0 -0.66102 -0.28797 -0.66102 -0.6778 l0 -11.034 l-4.0846 0 c-0.15254 0 -0.28814 -0.10169 -0.28814 -0.27119 l0 -1.288 c0 -0.16966 0.11864 -0.28831 0.28814 -0.28831 l10.085 0 z M58.7964406779661 6.4239999999999995 l-1.3729 0 c-0.16949 0 -0.27119 0.10186 -0.27119 0.28831 l0 8.1864 c0 2.2542 -1.5932 3.3729 -3.4746 3.3729 c-1.8475 0 -3.3898 -1.1186 -3.3898 -3.3729 l0 -8.1864 c0 -0.18644 -0.10153 -0.28831 -0.27119 -0.28831 l-1.339 0 c-0.18644 0 -0.30508 0.10186 -0.30508 0.28831 l0 8.322 c0 2.8136 1.9661 5.0846 5.3051 5.0846 c3.3559 0 5.3729 -2.271 5.3898 -5.0846 l0 -8.322 c0 -0.18644 -0.10169 -0.28831 -0.27119 -0.28831 z M65.7796372881356 4.881 l-0.33898 -0.59305 c-0.084746 -0.13559 -0.016949 -0.27119 0.067797 -0.32203 l3.3898 -2.3051 c0.11864 -0.10186 0.32203 -0.11881 0.40678 0.033732 l0.50847 0.83051 c0.10169 0.16933 0.033898 0.33898 -0.10169 0.40678 l-3.5593 2.0339 c-0.20339 0.10169 -0.30508 0.067797 -0.37288 -0.084746 z M74.3732372881356 19.69508 c0.08458 0.16966 0.033898 0.30508 -0.15254 0.30508 l-1.5424 0 c-0.15254 0 -0.23712 -0.067631 -0.28797 -0.18644 l-1.0508 -2.2034 l-7.3051 0 l-1.0339 2.2034 c-0.067797 0.11881 -0.15254 0.18644 -0.28814 0.18644 l-1.5593 0 c-0.16949 0 -0.25424 -0.13543 -0.18644 -0.30508 l6.3898 -13.186 c0.050847 -0.11864 0.13559 -0.15254 0.22034 -0.15254 l0.22017 0 c0.084746 0 0.15254 0.033898 0.22034 0.15254 z M64.8645372881356 15.8647 l5.6441 0 l-2.8136 -6 z M86.13561186440678 16.339 c0 0.15254 -0.11864 0.27119 -0.27119 0.27119 l-5.1356 0 c-0.15254 0 -0.28814 -0.10169 -0.28814 -0.27119 l0 -1.1186 c0 -0.16949 0.11864 -0.27119 0.28814 -0.27119 l5.1356 0 c0.15254 0 0.27119 0.084746 0.27119 0.27119 l0 1.1186 z"></path></g>
			</g>
		</svg>
	